<svg width="24" height="24" viewBox="0 0 24 24" fill="none" xmlns="http://www.w3.org/2000/svg">
<path d="M19.0002 3.00098C19.5307 3.00098 20.0394 3.21169 20.4145 3.58676C20.7895 3.96184 21.0002 4.47054 21.0002 5.00098V19.001C21.0002 19.5314 20.7895 20.0401 20.4145 20.4152C20.0394 20.7903 19.5307 21.001 19.0002 21.001H5.00024C4.46981 21.001 3.9611 20.7903 3.58603 20.4152C3.21096 20.0401 3.00024 19.5314 3.00024 19.001V5.00098C3.00024 4.47054 3.21096 3.96184 3.58603 3.58676C3.9611 3.21169 4.46981 3.00098 5.00024 3.00098H19.0002ZM18.5002 18.501V13.201C18.5002 12.3364 18.1568 11.5072 17.5454 10.8958C16.934 10.2844 16.1048 9.94098 15.2402 9.94098C14.3902 9.94098 13.4002 10.461 12.9202 11.241V10.131H10.1302V18.501H12.9202V13.571C12.9202 12.801 13.5402 12.171 14.3102 12.171C14.6815 12.171 15.0376 12.3185 15.3002 12.581C15.5627 12.8436 15.7102 13.1997 15.7102 13.571V18.501H18.5002ZM6.88024 8.56098C7.32581 8.56098 7.75312 8.38398 8.06818 8.06892C8.38325 7.75386 8.56024 7.32654 8.56024 6.88098C8.56024 5.95098 7.81024 5.19098 6.88024 5.19098C6.43203 5.19098 6.00217 5.36903 5.68523 5.68597C5.3683 6.0029 5.19024 6.43276 5.19024 6.88098C5.19024 7.81098 5.95024 8.56098 6.88024 8.56098ZM8.27024 18.501V10.131H5.50024V18.501H8.27024Z" fill="#FF7300"/>
</svg>
