<svg width="24" height="24" viewBox="0 0 24 24" fill="none" xmlns="http://www.w3.org/2000/svg">
<g clip-path="url(#clip0_69_1642)">
<path d="M19.9998 4.00146H3.99976C2.89976 4.00146 1.99976 4.90146 1.99976 6.00146V18.0015C1.99976 19.1015 2.89976 20.0015 3.99976 20.0015H19.9998C21.0998 20.0015 21.9998 19.1015 21.9998 18.0015V6.00146C21.9998 4.90146 21.0998 4.00146 19.9998 4.00146ZM19.9998 18.0015H3.99976V6.00146H19.9998V18.0015ZM3.99976 0.00146484H19.9998V2.00146H3.99976V0.00146484ZM3.99976 22.0015H19.9998V24.0015H3.99976V22.0015ZM11.9998 12.0015C13.3798 12.0015 14.4998 10.8815 14.4998 9.50146C14.4998 8.12146 13.3798 7.00146 11.9998 7.00146C10.6198 7.00146 9.49976 8.12146 9.49976 9.50146C9.49976 10.8815 10.6198 12.0015 11.9998 12.0015ZM11.9998 8.50146C12.5498 8.50146 12.9998 8.95146 12.9998 9.50146C12.9998 10.0515 12.5498 10.5015 11.9998 10.5015C11.4498 10.5015 10.9998 10.0515 10.9998 9.50146C10.9998 8.95146 11.4498 8.50146 11.9998 8.50146ZM16.9998 16.0015C16.9998 13.9015 13.6898 13.0015 11.9998 13.0015C10.3098 13.0015 6.99976 13.9015 6.99976 16.0015V17.0015H16.9998V16.0015ZM8.80976 15.5015C9.41976 15.0015 10.8398 14.5015 11.9998 14.5015C13.1698 14.5015 14.5898 15.0015 15.1998 15.5015H8.80976Z" fill="#FF7300"/>
</g>
<defs>
<clipPath id="clip0_69_1642">
<rect width="24" height="24" fill="white"/>
</clipPath>
</defs>
</svg>
